PathFileType        4      (X/Y/Z)      C:\Users\pc\Desktop\IMUTRC\Sujet_07\Sujet_07_Tpose.trc         
DataRate	CameraRate	NumFrames	NumMarkers	Units	OrigDataRate	OrigDataStartFrame	OrigNumFrames
60.0	60.0	4	64	mm	60.0	1	146
Frame#	Time	pHipOrigin			pRightASI			pLeftASI			pRightCSI			pLeftCSI			pRightIschialTub			pLeftIschialTub			pSacrum			pL5SpinalProcess			pL3SpinalProcess			pT12SpinalProcess			pIJ			pT4SpinalProcess			pT8SpinalProcess			pPX			pC7SpinalProcess			pTopOfHead			pRightAuricularis			pLeftAuricularis			pBackOfHead			pRightAcromion			pLeftAcromion			pRightArmLatEpicondyle			pRightArmMedEpicondyle			pLeftArmLatEpicondyle			pLeftArmMedEpicondyle			pRightUlnarStyloid			pRightRadialStyloid			pRightOlecranon			pLeftUlnarStyloid			pLeftRadialStyloid			pLeftOlecranon			pRightTopOfHand			pRightPinky			pRightBallHand			pLeftTopOfHand			pLeftPinky			pLeftBallHand			pRightGreaterTrochanter			pRightKneeLatEpicondyle			pRightKneeMedEpicondyle			pRightPatella			pLeftGreaterTrochanter			pLeftKneeLatEpicondyle			pLeftKneeMedEpicondyle			pLeftPatella			pRightTibialTub			pRightLatMalleolus			pRightMedMalleolus			pLeftTibialTub			pLeftLatMalleolus			pLeftMedMalleolus			pRightHeelFoot			pRightFirstMetatarsal			pRightFifthMetatarsal			pRightPivotFoot			pRightHeelCenter			pRightToe			pLeftHeelFoot			pLeftFirstMetatarsal			pLeftFifthMetatarsal			pLeftPivotFoot			pLeftHeelCenter			pLeftToe			
		X1	Y1	Z1	X2	Y2	Z2	X3	Y3	Z3	X4	Y4	Z4	X5	Y5	Z5	X6	Y6	Z6	X7	Y7	Z7	X8	Y8	Z8	X9	Y9	Z9	X10	Y10	Z10	X11	Y11	Z11	X12	Y12	Z12	X13	Y13	Z13	X14	Y14	Z14	X15	Y15	Z15	X16	Y16	Z16	X17	Y17	Z17	X18	Y18	Z18	X19	Y19	Z19	X20	Y20	Z20	X21	Y21	Z21	X22	Y22	Z22	X23	Y23	Z23	X24	Y24	Z24	X25	Y25	Z25	X26	Y26	Z26	X27	Y27	Z27	X28	Y28	Z28	X29	Y29	Z29	X30	Y30	Z30	X31	Y31	Z31	X32	Y32	Z32	X33	Y33	Z33	X34	Y34	Z34	X35	Y35	Z35	X36	Y36	Z36	X37	Y37	Z37	X38	Y38	Z38	X39	Y39	Z39	X40	Y40	Z40	X41	Y41	Z41	X42	Y42	Z42	X43	Y43	Z43	X44	Y44	Z44	X45	Y45	Z45	X46	Y46	Z46	X47	Y47	Z47	X48	Y48	Z48	X49	Y49	Z49	X50	Y50	Z50	X51	Y51	Z51	X52	Y52	Z52	X53	Y53	Z53	X54	Y54	Z54	X55	Y55	Z55	X56	Y56	Z56	X57	Y57	Z57	X58	Y58	Z58	X59	Y59	Z59	X60	Y60	Z60	X61	Y61	Z61	X62	Y62	Z62	X63	Y63	Z63	X64	Y64	Z64	
1	0.0	0.0	1002.25439	6.137038153224415E-14	67.67379417844383	1105.32389	144.02367014197642	78.26890422722728	1103.31894	-140.02117877430013	23.8701704542787	1176.5369	116.67575198785993	32.509634352771485	1174.90323	-117.05103843448671	-62.248543575997	944.63052	56.579920170792114	-57.8966536035081	943.81368	-60.26491437050821	-69.46312816477622	1026.3881	-2.8053727659388423	-29.50290410657025	1117.57639	-1.770851116587786	-31.10795883285792	1234.38354	-3.297754781728968	-50.56924612724754	1339.08672	-5.5304764071515	49.890653510781334	1596.16641	-7.551606703487751	-95.27305383863045	1534.53263	-10.675630159246905	-76.55896154912799	1442.75028	-8.188328822198148	80.62004286443819	1471.9335	-4.043690349587588	-105.90874431106513	1594.01294	-9.184813887413819	-33.04042038329049	1860.30058	-9.901153192706396	-26.496293965479218	1754.70632	57.328587360490765	-60.575923538292415	1762.50337	-83.24810271626994	-98.54714701448556	1763.91426	0.6388455700486958	-72.04236170260245	1576.33964	179.28609076616186	-59.05967724071901	1575.67133	-198.30027834045535	-39.6431616102949	1504.45832	453.16965008169495	14.982029524029741	1473.19588	439.3482836638837	-34.8557675623764	1463.98794	-466.8567596451528	18.83191194433573	1432.42848	-450.0938682912527	81.07688322603718	1435.10175	685.611898933175	71.80340559271957	1487.08205	697.6641333569347	-11.071996944335723	1464.582	436.65330124883707	-22.09553496722964	1384.6066	-713.8100508163437	-41.253029085764126	1434.58195	-722.2125376573399	-0.4988113867646007	1425.29975	-450.6220533347298	253.7710934447743	1435.77007	777.6856126613419	183.78416383337105	1409.85418	718.757670614039	118.02310808852866	1443.49286	689.1935403234752	18.526222677166913	1385.94324	-908.9217189491877	20.89893404661393	1361.36399	-817.0905955927664	-1.504337869372364	1394.03732	-748.1384103784973	-7.8982158708057995	970.62067	174.8190311773826	-55.92990459008378	529.60497	155.83393641250495	-52.81255258495334	526.26338	70.08784435454226	-6.218084945863197	525.81784	111.90883905201429	3.581515897431501	970.9177	-175.510627502467	-52.204421550013365	530.4218	-167.84710949563322	-54.25303697808555	525.44655	-82.16994348904274	-5.2726081332633825	525.07526	-121.11535482478692	4.374422634203	489.58014	113.90865774378116	-64.92873062460455	83.83678999999998	159.98470031276847	-62.36212470454911	81.23778	94.49948845622534	6.864741828146663	491.43658	-122.68238162719328	-43.23524839589683	84.28234000000002	-179.81781310044593	-44.935991171610034	80.56946	-114.34716020230493	-102.4163656472285	-0.22277000000000713	116.64764882755159	65.92236262312412	0.1485199999999917	136.06711858176953	39.08158308359455	3.0445599999999873	210.77459245898996	74.0621740746382	1.707919999999989	180.03797158371617	-64.33533161076107	4.900999999999992	130.1449630716303	161.04609026309964	0.742579999999987	211.30844930398803	-82.84913860439346	-0.07425999999999176	-134.52142257387445	84.09512608996214	-1.03960999999999	-163.92439105672554	52.873407678099284	2.376240000000015	-236.8272284677704	89.6161798469447	0.6683200000000128	-208.23967667513838	-45.57760213114084	4.826740000000009	-150.21613742170456	174.543741972313	-0.8910899999999851	-244.69474923923852	
2	0.017	0.037129999999999996	1002.25439	-0.06431104648497106	67.60948313195881	1105.39815	143.98654014197643	78.14029079451126	1103.46745	-140.09543377430012	23.640115975077634	1176.61116	116.62867803434494	32.34389092005545	1174.97749	-117.06098238800168	-62.14710252951197	944.55626	56.552739124307095	-57.79521255702306	943.81368	-60.29209541699324	-69.46312816477622	1026.31384	-2.8053727659388423	-29.63152619954031	1117.65065	-1.845111116587785	-31.23658092582799	1234.4578	-3.3720147817289687	-50.63355717373257	1339.16097	-5.5676064071515015	50.02921955726636	1596.09216	-7.643090136203783	-95.19879883863045	1534.68115	-10.804243591962935	-76.58614259561301	1442.82454	-8.289769868683177	80.59286181795315	1471.85925	-4.145131396072631	-105.73304326458009	1594.16146	-9.340617026868907	-32.86472433680546	1860.4491	-10.056947671907459	-26.283467918994187	1754.78058	57.10848183480468	-60.4002274918074	1762.57762	-83.40389719547102	-98.37145962825457	1763.98852	0.4830460908476383	-72.03241774908749	1576.48816	179.12034733344584	-58.985417240719	1575.67133	-198.4289004334254	-39.5689066102949	1504.68109	453.04103664897895	15.056284524029763	1473.3444	439.21967023116764	-34.84582360886145	1464.0622	-467.0225030778688	18.841860897850694	1432.42848	-450.2596203842227	81.21545427252215	1435.32452	685.520406840205	71.91479059271956	1487.30482	697.4712088777336	-10.99774194433573	1464.80478	436.52468781612106	-22.187027060199682	1384.68086	-713.9486218628286	-41.24308513224912	1434.6562	-722.378281090056	-0.4888537729956113	1425.37401	-450.78780042769984	253.90965949125933	1436.0671	777.594129228626	183.92273487985625	1410.15121	718.6661785210689	118.09736308852865	1443.71563	689.0649268907592	18.600482677166895	1385.94324	-909.0503410421578	20.871753000128876	1361.36399	-817.1920366392513	-1.5315189158574185	1394.11157	-748.2398514249822	-7.861085870805795	970.69492	174.75472013089757	-55.957081976314775	529.60497	155.73250902627393	-52.77542258495334	526.26338	70.02353330805724	-6.2823873320941885	525.89209	111.87171405201428	3.581515897431501	970.9177	-175.510627502467	-52.21436550352835	530.4218	-167.6813660629172	-54.36442697808555	525.52081	-81.97701034958763	-5.346863133263383	525.14952	-120.9867413920709	4.411552634202998	489.58014	113.84434669729615	-64.99304167108959	83.91104999999999	159.94757031276845	-62.36212470454911	81.31204	94.49948845622534	6.854792874631691	491.43658	-122.5166295342232	-43.23524839589683	84.35660000000001	-179.81781310044593	-44.935991171610034	80.64372	-114.34716020230493	-102.4806680334595	-0.22277000000000713	116.6105238275516	65.92236262312412	0.1485199999999917	136.06711858176953	39.08158308359455	3.0445599999999873	210.77459245898996	74.0621740746382	1.782179999999989	180.03797158371617	-64.33533161076107	4.900999999999992	130.1449630716303	161.04609026309964	0.816829999999987	211.30844930398803	-82.84913860439346	-0.07425999999999176	-134.52142257387445	84.05799608996213	-0.96534999999999	-163.8600800102405	52.80909663161425	2.4505000000000146	-236.8643584677704	89.6161798469447	0.7425800000000128	-208.23967667513838	-45.57760213114084	4.826740000000009	-150.21613742170456	174.543741972313	-0.816829999999985	-244.69474923923852	
3	0.033	0.037129999999999996	1002.32865	-0.06431104648497105	67.48086969924277	1105.54667	143.91228514197644	77.97453870154119	1103.61597	-140.10538272781508	23.474363882107575	1176.68541	116.61872908082998	32.1138364408544	1175.05175	-117.10805634151664	-62.04567014328097	944.55626	56.52555307782205	-57.75808755702306	943.73943	-60.35639780322424	-69.46312816477622	1026.23958	-2.8053727659388423	-29.79726463225634	1117.65065	-1.8550637303567923	-31.402324358544014	1234.4578	-3.381958735243937	-50.76217926670263	1339.23523	-5.6418664071515	50.16778194349736	1596.09216	-7.734587229173849	-95.12453883863046	1534.75541	-10.932865684932997	-76.61332364209807	1442.97305	-8.391210915168212	80.62999181795315	1471.78499	-4.209442442557662	-105.59447721809505	1594.30997	-9.43210045958494	-32.62472090408943	1860.52335	-10.175625811362556	-26.107771872509154	1754.85484	56.952687355603615	-60.187401445322365	1762.72614	-83.6240027211571	-98.13144753528448	1764.06277	0.3643729513925408	-71.95815774908749	1576.71093	178.99172524047577	-58.97546462695	1575.59707	-198.59463886614142	-39.49464661029489	1504.82961	452.91241455600886	15.130544524029744	1473.56717	439.0910481381976	-34.83587465534646	1464.0622	-467.18825517083894	18.814679851365668	1432.50274	-450.36106143070776	81.2897092725222	1435.5473	685.3917934074889	71.98904559271955	1487.52759	697.3425954450177	-10.92348194433572	1464.95329	436.39606572315097	-22.17707444643065	1384.75512	-714.1143602955447	-41.270266178734175	1434.73046	-722.479722136541	-0.47890981948063427	1425.37401	-450.9535438604159	253.98391949125937	1436.36413	777.4655071356558	183.99698987985624	1410.37398	718.5375650883528	118.27306413501378	1443.9384	688.909123751304	18.637607677166898	1385.94324	-909.1146434283888	20.780264567412814	1361.43824	-817.3305940254824	-1.6230110088274614	1394.18583	-748.3784224714672	-7.861085870805795	970.69492	174.75472013089757	-55.957081976314775	529.67923	155.73250902627393	-52.738292584953335	526.33764	69.9592222615722	-6.245262332094185	525.89209	111.80741166578328	3.618645897431506	970.9177	-175.57493854895205	-52.288625503528344	530.4218	-167.55274396994716	-54.374370931600524	525.59506	-81.81126691687162	-5.393942086778345	525.14952	-120.7566782526158	4.411552634202998	489.6544	113.84434669729615	-64.99304167108959	83.91104999999999	159.94757031276845	-62.36212470454911	81.31204	94.49948845622534	6.78053787463169	491.51084	-122.38801610150718	-43.27237839589684	84.43085000000002	-179.7535020539609	-44.97312117161003	80.64372	-114.28284915581989	-102.4806680334595	-0.14852000000000715	116.6105238275516	65.85805157663908	0.22276999999999167	136.02998858176954	39.01727203710951	3.118819999999987	210.73746245898997	73.99786302815315	1.856439999999989	180.00084158371618	-64.39963399699207	4.975259999999992	130.10783807163028	161.04609026309964	0.8910899999999871	211.30844930398803	-82.88626860439346	8.233123562730805E-15	-134.45711152738943	84.05799608996213	-0.96534999999999	-163.8600800102405	52.80909663161425	2.4505000000000146	-236.8643584677704	89.6161798469447	0.7425800000000128	-208.23967667513838	-45.57760213114084	4.901000000000009	-150.21613742170456	174.506611972313	-0.742579999999985	-244.63043819275353	
4	0.05	0.037129999999999996	1002.32865	-0.06431104648497105	67.41655865275776	1105.62092	143.87515514197645	77.84592526882516	1103.69023	-140.17963772781508	23.345750449391552	1176.75967	116.54447408082997	31.948084347884333	1175.12601	-117.11800529503161	-61.98135909679594	944.55626	56.56268307782205	-57.693785170792054	943.73943	-60.31927280322424	-69.52743921126125	1026.23958	-2.8425027659388435	-29.86157567874137	1117.72491	-1.8921937303567917	-31.530946451514083	1234.53206	-3.4562187352439375	-50.890792699418654	1339.23523	-5.716121407151501	50.242036943497354	1596.0179	-7.863200661889872	-95.08740883863045	1534.90392	-10.997176731418035	-76.64050968858308	1443.04731	-8.492643301399209	80.56568077146812	1471.71073	-4.246572442557659	-105.48309221809505	1594.38423	-9.625024938785993	-32.51333590408943	1860.59761	-10.368550290563615	-25.93207082602412	1754.92909	56.79688421614852	-60.01170905909136	1762.8004	-83.7798108606122	-97.91862148879946	1764.13703	0.1442674257064468	-71.94821379557251	1576.85945	178.82598180775975	-58.901204626950005	1575.59707	-198.72326095911149	-39.484702656779916	1505.05238	452.74667112329286	15.204799524029738	1473.71569	438.9624347054816	-34.82593070183148	1464.13646	-467.35399860355494	18.824623804880616	1432.57699	-450.52680486342376	81.36396927252218	1435.77007	685.2631713145189	72.06330559271953	1487.75037	697.2139733520477	-10.913537990820771	1465.17606	436.23032229043497	-22.268566539400695	1384.90363	-714.2529313420297	-41.26030856496516	1434.87898	-722.645469229511	-0.5060908659656604	1425.44827	-451.0549849069009	254.05817449125936	1436.51264	777.3368937029398	184.07124987985623	1410.59675	718.4089429953827	118.34731913501378	1444.08692	688.7805103185881	18.58325424445087	1386.09176	-909.3175205213589	20.753083520927817	1361.5125	-817.4320350719673	-1.6501883950584784	1394.26009	-748.4798498576982	-7.8239608708057915	970.69492	174.69041774466658	-55.919951976314785	529.67923	155.66819797978894	-52.802603631438366	526.33764	69.9220922615722	-6.245262332094185	525.96635	111.80741166578328	3.618645897431506	970.9177	-175.57493854895205	-52.2985694570433	530.4218	-167.3870005372311	-54.44863093160052	525.59506	-81.68264482390155	-5.468197086778339	525.14952	-120.62806481989978	4.411552634202998	489.6544	113.84434669729615	-65.05734405732059	83.98530999999998	159.91044531276845	-62.42643575103414	81.38629	94.46235845622533	6.706277874631688	491.51084	-122.2593940085371	-43.27237839589684	84.43085000000002	-179.7535020539609	-44.97312117161003	80.71798	-114.28284915581989	-102.4806680334595	-0.14852000000000715	116.6105238275516	65.85805157663908	0.22276999999999167	136.02998858176954	39.01727203710951	3.1930799999999873	210.73746245898997	73.99786302815315	1.856439999999989	180.00084158371618	-64.39963399699207	4.975259999999992	130.10783807163028	160.9817792166146	0.965349999999987	211.271319303988	-82.88626860439346	8.233123562730805E-15	-134.45711152738943	84.02087108996213	-0.8910899999999901	-163.79577762400947	52.77196663161425	2.5247600000000148	-236.80004742128534	89.5790548469447	0.8168300000000127	-208.17537428890736	-45.61473213114084	4.901000000000009	-150.1518263752195	174.506611972313	-0.742579999999985	-244.63043819275353	
